# xmcd CD database file
#
# Track frame offsets:
#	150
#	35308
#	60153
#	84438
#	122653
#
# Disc length: 2409 seconds
#
# Revision: 0
# Processed by: cddbd v1.5.2PL0 Copyright (c) Steve Scherf et al.
# Submitted via: CDex 1.51
#
DISCID=2f096705
DTITLE=Sun Ra - Of Mythic Worlds
DYEAR=1979
DGENRE=Jazz
TTITLE0=Mayan Temples
TTITLE1=Over the Rainbow
TTITLE2=Inside the Blues
TTITLE3=Intrinsic Energies
TTITLE4=Of Mythic Worlds
EXTD=YEAR: 1979
EXTT0=
EXTT1=
EXTT2=
EXTT3=
EXTT4=
PLAYORDER=
